<?xml version="1.0" encoding="utf-8"?>
<!-- Generator: Adobe Illustrator 24.0.1, SVG Export Plug-In . SVG Version: 6.00 Build 0)  -->
<svg version="1.1" id="Logotipo" xmlns="http://www.w3.org/2000/svg" xmlns:xlink="http://www.w3.org/1999/xlink" x="0px" y="0px"
	 width="1920px" height="800px" viewBox="0 0 1920 800" style="enable-background:new 0 0 1920 800;" xml:space="preserve">
<style type="text/css">
	.st0{fill:#004C97;}
	.st1{fill:#00A3E0;}
</style>
<path class="st0" d="M479.4,288.2l-4.4,0c-2,0-3.7,1.1-4.7,2.8L190.4,789.1c-1.4,2.6-4.7,3.6-7.3,2.1l-154-87.1
	c-2.5-1.4-3.4-4.7-2-7.2L408,16.2c0.9-1.7,2.7-2.7,4.6-2.7h66.8L479.4,288.2z"/>
<path class="st0" d="M1334,213.5h-194.6c-2.9,0-5.3,2.4-5.3,5.3v558.4c0,2.9-2.4,5.3-5.3,5.3H946.4c-2.9,0-5.3-2.4-5.3-5.3V221.8
	c0-2.9-2.4-5.3-5.3-5.3H725.4c-2.9,0-5.3-2.4-5.3-5.3V23.8c0-2.9,2.4-5.3,5.3-5.3H1334c2.9,0,5.3,2.4,5.3,5.3v184.4
	C1339.3,211.1,1336.9,213.5,1334,213.5z"/>
<path class="st0" d="M1577.7,786.5c296.9,0,316.5-260.5,316.5-296.5c0-33.6,0-417.3,0-466.2c0-2.9-2.4-5.3-5.3-5.3h-178.6
	c-2.9,0-5.3,2.4-5.3,5.3l-0.4,453.7c0,0-5.2,123-126.8,123L1577.7,786.5z"/>
<polygon class="st1" points="1894.2,490 142.9,490 255.8,288.2 1894.2,288.2 "/>
<path class="st0" d="M474.6,288.2l3.9,0c1.9,0,3.7,1,4.6,2.7l281.9,489c1,1.6,2.7,2.7,4.6,2.7h255c2.9,0,5.3-2.4,5.3-5.3l-0.5-175.3
	c0-2.9-2.4-5.3-5.3-5.3H881.6c-1.9,0-3.7-1-4.6-2.7L550,16.2c-0.9-1.7-2.7-2.7-4.6-2.7h-70.8L474.6,288.2z"/>
<path class="st0" d="M1581.5,786.5c-296.9,0-317.8-276-317.8-312c0-33.6,0-401.8,0-450.7c0-2.9,2.4-5.3,5.3-5.3h178.6
	c2.9,0,5.3,2.4,5.3,5.3l0.4,453.7c0,0,6.5,123,128.1,123L1581.5,786.5z"/>
</svg>
